<svg height="512" viewBox="0 0 448 512" width="448" xmlns="http://www.w3.org/2000/svg"><path d="m48 32c-26.5 0-48 21.5-48 48v352c0 26.5 21.5 48 48 48h352c26.5 0 48-21.5 48-48v-352c0-26.5-21.5-48-48-48zm138.25781 64c31.61281.0622 67.72547 6.76751 105.72657 20.27344 15.24648 5.42534 21.30002 9.19309 18.5 11.54101-2.07192 1.73321-16.11521 1.70769-40.37891-.07617-37.92937-2.78797-66.80096 2.48681-81.68359 14.94531-22.65736 18.96414-19.20383 60.53674 10.02148 120.50586 3.1653 6.49323 6.35482 12.84709 7.08398 14.14063 1.69605 2.97609.4657 5.7401-2.48632 5.60156-1.25745-.0602-29.56616-3.63758-62.91016-7.95898-33.34509-4.31995-61.32676-8.07752-62.19336-8.35352-1.48128-.47724-6.781924-18.15937-9.771484-32.55273-.75324-3.64255-1.858288-13.28854-2.460938-21.45118-2.68915-36.42253 5.235346-61.6022 26.472656-84.24609 20.225996-21.54669 53.435046-32.449111 94.080076-32.36914zm47.97461 58.44531c11.97728.03305 25.52251 2.67737 36.51172 7.58399 16.69059 7.44805 31.48625 20.54794 36.98633 32.73047 7.05871 15.63586 1.18003 33.07955-13.94141 41.40625-10.02273 5.51322-29.50064 8.39051-41.80859 6.17968h.01367v-.00195c-26.61343-4.78516-50.53768-21.28816-58.26172-40.16406-3.70526-9.06789-3.52994-20.89771.42578-27.98047 3.57984-6.40535 12.82248-13.81537 21.09961-16.91797 5.16646-1.93553 11.78824-2.85577 18.97461-2.83594zm87.4668 7.58203c5.9281-.70257 35.18884 27.70568 45.96484 44.62305 18.57475 29.17462 20.08347 60.73591 4.35938 91.25586-9.65854 18.75046-20.33287 31.7232-38.20508 46.46875-29.70255 24.49046-64.22767 41.54511-111.90234 55.28516-25.60792 7.38536-67.01699 16.33984-75.54493 16.33984-1.80796 0-5.19869-5.92816-15.77343-27.61719l-.02539.01172c-34.324002-70.332-54.746098-112.80696-54.746098-113.86133 0-1.72012 2.098093-1.48142 22.720703 2.5625 36.270515 7.12141 55.648415 9.13054 87.951175 9.14258 42.73857.0118 77.542-6.75594 104.58203-20.35742 14.30513-7.19613 22.90755-13.5774 29.95312-22.21875 8.67853-10.65054 11.46615-17.98458 11.56641-30.33008.0879-11.7425-1.49473-17.93453-8.28906-32.30273-2.68808-5.67728-5.05008-12.19382-5.27539-14.48047-.35181-3.68011-.04918-4.20833 2.66406-4.52149z"/></svg>